<?xml version="1.0" encoding="UTF-8" standalone="no"?>
<!-- Created with Inkscape (http://www.inkscape.org/) -->

<svg
   xmlns:dc="http://purl.org/dc/elements/1.1/"
   xmlns:cc="http://creativecommons.org/ns#"
   xmlns:rdf="http://www.w3.org/1999/02/22-rdf-syntax-ns#"
   xmlns:svg="http://www.w3.org/2000/svg"
   xmlns="http://www.w3.org/2000/svg"
   xmlns:sodipodi="http://sodipodi.sourceforge.net/DTD/sodipodi-0.dtd"
   xmlns:inkscape="http://www.inkscape.org/namespaces/inkscape"
   width="259.29166mm"
   height="259.29166mm"
   viewBox="0 0 259.29166 259.29166"
   version="1.1"
   id="svg8"
   sodipodi:docname="logo.svg"
   inkscape:version="0.92.0 15301">
  <defs
     id="defs2">
    <clipPath
       clipPathUnits="userSpaceOnUse"
       id="clipPath4890">
      <g
         id="g4896"
         transform="matrix(0.26458333,0,0,0.26458333,-37.041665,3.6904814)"
         style="display:inline"
         mask="none">
        <path
           id="path4892"
           d="m 494,297.6 h -89.1 v 399.7 h 82.9 c 53.4,0 93.4,-15 119.9,-45.1 26.5,-30.1 39.7,-70.3 39.7,-120.7 v -68.7 c 0,-51.4 -13,-91.7 -39,-121.1 C 582.3,312.3 544.2,297.6 494,297.6 Z"
           inkscape:connector-curvature="0"
           style="fill:#66267f;fill-opacity:1" />
        <path
           id="path4894"
           d="M 500,10 C 229.8,10 10,229.8 10,500 10,770.2 229.8,990 500,990 770.2,990 990,770.2 990,500 990,229.8 770.2,10 500,10 Z m 211.6,521.5 c 0,65.9 -19.8,118.6 -59.4,158 -39.6,39.5 -94.4,59.2 -164.4,59.2 H 341 v -503 h 153 c 66.8,0 119.8,19.9 158.9,59.8 39.2,39.8 58.7,92.5 58.7,157.9 z"
           inkscape:connector-curvature="0"
           style="fill:#66267f;fill-opacity:1;stroke:none;stroke-width:3.77952766;stroke-miterlimit:4;stroke-dasharray:none;stroke-opacity:1" />
      </g>
    </clipPath>
  </defs>
  <sodipodi:namedview
     id="base"
     pagecolor="#ffffff"
     bordercolor="#666666"
     borderopacity="1.0"
     inkscape:pageopacity="0.0"
     inkscape:pageshadow="2"
     inkscape:zoom="0.70710678"
     inkscape:cx="420.86755"
     inkscape:cy="461.30308"
     inkscape:document-units="mm"
     inkscape:current-layer="layer1"
     showgrid="false"
     fit-margin-top="0"
     fit-margin-left="0"
     fit-margin-right="0"
     fit-margin-bottom="0"
     inkscape:window-width="1920"
     inkscape:window-height="981"
     inkscape:window-x="0"
     inkscape:window-y="27"
     inkscape:window-maximized="1" />
  <metadata
     id="metadata5">
    <rdf:RDF>
      <cc:Work
         rdf:about="">
        <dc:format>image/svg+xml</dc:format>
        <dc:type
           rdf:resource="http://purl.org/dc/dcmitype/StillImage" />
        <dc:title></dc:title>
      </cc:Work>
    </rdf:RDF>
  </metadata>
  <g
     inkscape:label="Layer 1"
     inkscape:groupmode="layer"
     id="layer1"
     transform="translate(34.395832,-6.3363147)">
    <g
       transform="matrix(0.26458333,0,0,0.26458333,-37.041665,3.6904814)"
       id="g4838"
       style="display:inline"
       sodipodi:insensitive="true">
      <path
         style="fill:#66267f;fill-opacity:1"
         inkscape:connector-curvature="0"
         d="m 494,297.6 h -89.1 v 399.7 h 82.9 c 53.4,0 93.4,-15 119.9,-45.1 26.5,-30.1 39.7,-70.3 39.7,-120.7 v -68.7 c 0,-51.4 -13,-91.7 -39,-121.1 C 582.3,312.3 544.2,297.6 494,297.6 Z"
         id="path4834" />
      <path
         style="fill:#66267f;fill-opacity:1;stroke:none;stroke-width:3.77952766;stroke-miterlimit:4;stroke-dasharray:none;stroke-opacity:1"
         inkscape:connector-curvature="0"
         d="M 500,10 C 229.8,10 10,229.8 10,500 10,770.2 229.8,990 500,990 770.2,990 990,770.2 990,500 990,229.8 770.2,10 500,10 Z m 211.6,521.5 c 0,65.9 -19.8,118.6 -59.4,158 -39.6,39.5 -94.4,59.2 -164.4,59.2 H 341 v -503 h 153 c 66.8,0 119.8,19.9 158.9,59.8 39.2,39.8 58.7,92.5 58.7,157.9 z"
         id="path4836" />
    </g>
    <rect
       y="68.698608"
       x="53.181252"
       height="196.92935"
       width="171.71457"
       id="rect4879"
       style="display:inline;fill:#b700ff;fill-opacity:1;stroke:none;stroke-width:1;stroke-miterlimit:4;stroke-dasharray:none;stroke-opacity:1"
       clip-path="url(#clipPath4890)"
       mask="none" />
  </g>
</svg>
